<?xml version="1.0" encoding="UTF-8" standalone="no"?>
<svg
   xmlns:dc="http://purl.org/dc/elements/1.1/"
   xmlns:cc="http://creativecommons.org/ns#"
   xmlns:rdf="http://www.w3.org/1999/02/22-rdf-syntax-ns#"
   xmlns:svg="http://www.w3.org/2000/svg"
   xmlns="http://www.w3.org/2000/svg"
   version="1.0"
   id="svg2"
   height="20.751953"
   width="21.146486">
  <defs
     id="defs4" />
  <metadata
     id="metadata7">
    <rdf:RDF>
      <cc:Work
         rdf:about="">
        <dc:format>image/svg+xml</dc:format>
        <dc:type
           rdf:resource="http://purl.org/dc/dcmitype/StillImage" />
        <dc:title></dc:title>
        <dc:date>11/09/2006</dc:date>
        <dc:creator>
          <cc:Agent>
            <dc:title>h0us3s</dc:title>
          </cc:Agent>
        </dc:creator>
        <dc:language>es</dc:language>
        <dc:subject>
          <rdf:Bag>
            <rdf:li>Inkscape</rdf:li>
            <rdf:li>Sign Hazard</rdf:li>
            <rdf:li>Warning</rdf:li>
          </rdf:Bag>
        </dc:subject>
        <cc:license
           rdf:resource="http://web.resource.org/cc/PublicDomain" />
      </cc:Work>
      <cc:License
         rdf:about="http://web.resource.org/cc/PublicDomain">
        <cc:permits
           rdf:resource="http://web.resource.org/cc/Reproduction" />
        <cc:permits
           rdf:resource="http://web.resource.org/cc/Distribution" />
        <cc:permits
           rdf:resource="http://web.resource.org/cc/DerivativeWorks" />
      </cc:License>
    </rdf:RDF>
  </metadata>
  <path
     d="m 3.7792969,-0.03515625 1.890625,3.77929685 c 0,0 0.029074,0.8171797 1.3886719,1.3769532 v 6.1816402 c 0,1.519852 -0.2284876,2.524033 -0.5800782,3.087891 -0.3515905,0.563858 -0.7800419,0.767992 -1.5117187,0.773437 -0.7913253,0.0059 -1.3147585,-0.128488 -1.6308594,-0.251953 -0.3161009,-0.123464 -0.3867188,-0.199218 -0.3867187,-0.199218 -0.4946345,-0.475778 -1.1932063,0.293869 -0.671875,0.740234 0,0 0.2581951,0.219893 0.6953124,0.390625 0.4371174,0.170732 1.0930825,0.327075 2.0019532,0.320312 0.9685191,-0.0072 1.8338781,-0.413912 2.3515625,-1.24414 0.5176844,-0.830228 0.7324218,-2.002846 0.7324219,-3.617188 V 5.4101562 c 0.2726726,0.05719 0.5509982,0.1128636 0.890625,0.1484376 v 7.6347652 c 0,1.806431 -0.4519531,3.102691 -1.1289063,3.935547 -0.6769532,0.832857 -1.5759322,1.232422 -2.625,1.232422 -1.1185092,0 -1.874736,-0.21222 -2.34375,-0.412109 -0.469014,-0.19989 -0.6152344,-0.351563 -0.6152344,-0.351563 -0.4805749,-0.468235 -1.1798235,0.258589 -0.6933593,0.720703 0,0 0.3237881,0.29838 0.9160156,0.550782 0.5922274,0.252402 1.4902983,0.492187 2.7363281,0.492187 1.3154712,0 2.5413271,-0.544655 3.4003906,-1.601562 0.8590635,-1.056907 1.3535157,-2.593309 1.3535157,-4.566407 V 5.6113281 c 0.1567062,0.00464 0.2768002,0.023437 0.4453122,0.023437 0.167985,0 0.287109,-0.018829 0.44336,-0.023437 v 7.5820309 c 0,1.973098 0.494452,3.5095 1.353515,4.566407 0.859064,1.056907 2.086873,1.601562 3.402344,1.601562 1.24603,0 2.142148,-0.239785 2.734375,-0.492187 0.592227,-0.252402 0.916016,-0.550782 0.916016,-0.550782 0.486391,-0.462116 -0.212786,-1.188865 -0.69336,-0.720703 0,0 -0.14622,0.151673 -0.615234,0.351563 -0.469014,0.199889 -1.223288,0.412109 -2.341797,0.412109 -1.049068,0 -1.95,-0.399565 -2.626953,-1.232422 C 12.289844,16.29605 11.837891,14.99979 11.837891,13.193359 V 5.5585938 c 0.339671,-0.035575 0.617928,-0.09124 0.890625,-0.1484376 v 5.8925778 c 0,1.614342 0.214736,2.78696 0.732422,3.617188 0.517684,0.830228 1.383043,1.236933 2.351562,1.24414 0.908871,0.0068 1.564836,-0.14958 2.001953,-0.320312 0.437117,-0.170732 0.695313,-0.390625 0.695313,-0.390625 0.521331,-0.446365 -0.177241,-1.216012 -0.671875,-0.740234 0,0 -0.07062,0.07575 -0.386719,0.199218 -0.316101,0.123465 -0.839534,0.257841 -1.63086,0.251953 -0.731676,-0.0054 -1.160128,-0.209579 -1.511718,-0.773437 -0.351591,-0.563858 -0.580078,-1.568039 -0.580078,-3.087891 V 5.1210938 c 1.359496,-0.5597735 1.388672,-1.3769532 1.388672,-1.3769532 l 1.890624,-3.77929685 z"
     style="color:#000000;font-style:normal;font-variant:normal;font-weight:normal;font-stretch:normal;font-size:medium;line-height:normal;font-family:sans-serif;font-variant-ligatures:normal;font-variant-position:normal;font-variant-caps:normal;font-variant-numeric:normal;font-variant-alternates:normal;font-feature-settings:normal;text-indent:0;text-align:start;text-decoration:none;text-decoration-line:none;text-decoration-style:solid;text-decoration-color:#000000;letter-spacing:normal;word-spacing:normal;text-transform:none;writing-mode:lr-tb;direction:ltr;text-orientation:mixed;dominant-baseline:auto;baseline-shift:baseline;text-anchor:start;white-space:normal;shape-padding:0;clip-rule:nonzero;display:inline;overflow:visible;visibility:visible;opacity:1;isolation:auto;mix-blend-mode:normal;color-interpolation:sRGB;color-interpolation-filters:linearRGB;solid-color:#000000;solid-opacity:1;vector-effect:none;fill:#000000;fill-opacity:1;fill-rule:nonzero;stroke:none;stroke-width:1px;stroke-linecap:round;stroke-linejoin:miter;stroke-miterlimit:4;stroke-dasharray:none;stroke-dashoffset:0;stroke-opacity:1;color-rendering:auto;image-rendering:auto;shape-rendering:auto;text-rendering:auto;enable-background:accumulate"
     id="path4532" />
</svg>
