<?xml version="1.0" encoding="UTF-8" standalone="no"?>
<svg
   xmlns:dc="http://purl.org/dc/elements/1.1/"
   xmlns:cc="http://creativecommons.org/ns#"
   xmlns:rdf="http://www.w3.org/1999/02/22-rdf-syntax-ns#"
   xmlns:svg="http://www.w3.org/2000/svg"
   xmlns="http://www.w3.org/2000/svg"
   version="1.0"
   id="svg2"
   height="49.239151"
   width="56.310986">
  <defs
     id="defs4" />
  <metadata
     id="metadata7">
    <rdf:RDF>
      <cc:Work
         rdf:about="">
        <dc:format>image/svg+xml</dc:format>
        <dc:type
           rdf:resource="http://purl.org/dc/dcmitype/StillImage" />
        <dc:title></dc:title>
        <dc:date>11/09/2006</dc:date>
        <dc:creator>
          <cc:Agent>
            <dc:title>h0us3s</dc:title>
          </cc:Agent>
        </dc:creator>
        <dc:language>es</dc:language>
        <dc:subject>
          <rdf:Bag>
            <rdf:li>Inkscape</rdf:li>
            <rdf:li>Sign Hazard</rdf:li>
            <rdf:li>Warning</rdf:li>
          </rdf:Bag>
        </dc:subject>
        <cc:license
           rdf:resource="http://web.resource.org/cc/PublicDomain" />
      </cc:Work>
      <cc:License
         rdf:about="http://web.resource.org/cc/PublicDomain">
        <cc:permits
           rdf:resource="http://web.resource.org/cc/Reproduction" />
        <cc:permits
           rdf:resource="http://web.resource.org/cc/Distribution" />
        <cc:permits
           rdf:resource="http://web.resource.org/cc/DerivativeWorks" />
      </cc:License>
    </rdf:RDF>
  </metadata>
  <g
     transform="translate(150.0467,-250.71852)"
     style="display:inline"
     id="layer2" />
  <g
     transform="translate(150.0467,-250.71852)"
     style="display:inline"
     id="layer1">
    <g
       transform="translate(80.72047,0)"
       id="g3141" />
    <path
       d="m 28.412109,0.01757813 c -0.163939,-0.024825 -0.333514,-0.02504688 -0.505859,0.0019531 -0.50887,0.0788 -0.94216,0.38556 -1.1875,0.8125 l -26.5,45.90624975 c -0.29022,0.50547 -0.2911,1.15388 0,1.65625 0.29591,0.51068 0.84227,0.8442 1.4375,0.84375 l 53,0 c 0.59521,4.5e-4 1.14158,-0.33306 1.4375,-0.84375 0.29108,-0.50236 0.29023,-1.15078 0,-1.65625 l -26.5,-45.90624975 C 29.3386,0.38770125 28.903928,0.09205313 28.412109,0.01757813 Z M 28.15625,5.3007812 43.039062,31.511719 l -10.699218,0 a 3.8404617,3.8404617 0 0 0 -0.390625,-1.150391 l 5.794922,-3.345703 -0.310547,-0.537109 -5.816406,3.359375 a 3.8404617,3.8404617 0 0 0 -0.980469,-0.910157 l 3.466797,-6.005859 -0.539063,-0.310547 -3.476562,6.021484 a 3.8404617,3.8404617 0 0 0 -1.232422,-0.308593 l 0,-7.03711 -0.621094,0 0,7.03711 a 3.8404617,3.8404617 0 0 0 -1.251953,0.326172 l -3.376953,-5.84961 -0.539063,0.310547 3.369141,5.835938 a 3.8404617,3.8404617 0 0 0 -1.017578,0.986328 l -5.589844,-3.228516 -0.310547,0.539063 5.587891,3.226562 a 3.8404617,3.8404617 0 0 0 -0.375,1.339844 l -7.019531,0 0,0.621094 7.013671,0 a 3.8404617,3.8404617 0 0 0 0.296875,1.21289 l -5.642578,3.257813 0.310547,0.537109 5.617188,-3.242187 a 3.8404617,3.8404617 0 0 0 0.96875,1.039062 l -3.339844,5.785156 0.539062,0.310547 3.330079,-5.767578 a 3.8404617,3.8404617 0 0 0 1.429687,0.410156 l 0,6.980469 0.621094,0 0,-6.978516 a 3.8404617,3.8404617 0 0 0 1.412109,-0.392578 l 3.525391,6.105469 0.537109,-0.310547 -3.53125,-6.11914 a 3.8404617,3.8404617 0 0 0 0.9375,-0.962891 l 6.091797,3.517578 0.310547,-0.537109 -6.101563,-3.523438 a 3.8404617,3.8404617 0 0 0 0.339844,-1.242187 l 11.230469,0 7.048828,12.414062 -45.03125,0 22.53125,-39.6249998 z"
       style="color:#000000;display:inline;overflow:visible;visibility:visible;opacity:1;fill:#000000;fill-opacity:1;fill-rule:nonzero;stroke:none;stroke-width:9.14700031;stroke-linecap:round;stroke-linejoin:round;stroke-miterlimit:4;stroke-dasharray:none;stroke-dashoffset:43.68000031;stroke-opacity:1;marker:none;marker-start:none;marker-mid:none;marker-end:none"
       transform="translate(-150.0467,250.71852)"
       id="path4561" />
  </g>
</svg>
