<?xml version="1.0" encoding="UTF-8" standalone="no"?>
<svg
   xmlns:dc="http://purl.org/dc/elements/1.1/"
   xmlns:cc="http://creativecommons.org/ns#"
   xmlns:rdf="http://www.w3.org/1999/02/22-rdf-syntax-ns#"
   xmlns:svg="http://www.w3.org/2000/svg"
   xmlns="http://www.w3.org/2000/svg"
   version="1.0"
   id="svg2"
   height="45.599571"
   width="21.399111">
  <defs
     id="defs4" />
  <metadata
     id="metadata7">
    <rdf:RDF>
      <cc:Work
         rdf:about="">
        <dc:format>image/svg+xml</dc:format>
        <dc:type
           rdf:resource="http://purl.org/dc/dcmitype/StillImage" />
        <dc:title></dc:title>
        <dc:date>11/09/2006</dc:date>
        <dc:creator>
          <cc:Agent>
            <dc:title>h0us3s</dc:title>
          </cc:Agent>
        </dc:creator>
        <dc:language>es</dc:language>
        <dc:subject>
          <rdf:Bag>
            <rdf:li>Inkscape</rdf:li>
            <rdf:li>Sign Hazard</rdf:li>
            <rdf:li>Warning</rdf:li>
          </rdf:Bag>
        </dc:subject>
        <cc:license
           rdf:resource="http://web.resource.org/cc/PublicDomain" />
      </cc:Work>
      <cc:License
         rdf:about="http://web.resource.org/cc/PublicDomain">
        <cc:permits
           rdf:resource="http://web.resource.org/cc/Reproduction" />
        <cc:permits
           rdf:resource="http://web.resource.org/cc/Distribution" />
        <cc:permits
           rdf:resource="http://web.resource.org/cc/DerivativeWorks" />
      </cc:License>
    </rdf:RDF>
  </metadata>
  <g
     transform="translate(132.4783,-250.16077)"
     style="display:inline"
     id="layer2" />
  <g
     transform="translate(132.4783,-250.16077)"
     style="display:inline"
     id="layer1">
    <g
       transform="translate(80.72047,0)"
       id="g3141" />
    <path
       d="m 18.074219,0 -7.271485,31.222656 a 3.8404617,3.8404617 0 0 0 -1.0761715,0.08789 L 7.9941406,24.847656 7.3945312,25.007812 9.1328125,31.496094 A 3.8404617,3.8404617 0 0 0 8.0019531,32.207031 L 3.0976562,27.304688 2.6582031,27.744141 7.5742188,32.660156 A 3.8404617,3.8404617 0 0 0 6.9570312,33.771484 L 0.16015625,31.951172 0,32.550781 6.796875,34.371094 a 3.8404617,3.8404617 0 0 0 -0.00781,1.294922 l -6.52539062,1.748046 0.16015624,0.59961 6.50976568,-1.744141 a 3.8404617,3.8404617 0 0 0 0.6894531,1.238281 l -4.5644531,4.564454 0.4394531,0.439453 4.5625,-4.5625 a 3.8404617,3.8404617 0 0 0 1.1972656,0.708984 l -1.8164063,6.78125 0.5996094,0.160156 1.8144532,-6.773437 a 3.8404617,3.8404617 0 0 0 1.2500002,0.02734 l 1.685547,6.292968 0.599609,-0.162109 -1.677734,-6.263672 a 3.8404617,3.8404617 0 0 0 1.253906,-0.667969 l 4.724609,4.722657 0.439453,-0.439453 -4.708984,-4.708985 a 3.8404617,3.8404617 0 0 0 0.763672,-1.275391 l 6.744141,1.806641 0.160156,-0.599609 -6.740235,-1.806641 a 3.8404617,3.8404617 0 0 0 -0.01367,-1.466797 l 6.810546,-1.824218 -0.162109,-0.597657 -6.822266,1.828125 a 3.8404617,3.8404617 0 0 0 -0.689453,-1.15625 l 4.97461,-4.974609 -0.4375,-0.439453 -4.982422,4.982422 a 3.8404617,3.8404617 0 0 0 -0.78711,-0.507813 L 21.398438,0.890625 18.074219,0 Z"
       style="color:#000000;font-style:normal;font-variant:normal;font-weight:normal;font-stretch:normal;font-size:medium;line-height:normal;font-family:sans-serif;text-indent:0;text-align:start;text-decoration:none;text-decoration-line:none;text-decoration-style:solid;text-decoration-color:#000000;letter-spacing:normal;word-spacing:normal;text-transform:none;direction:ltr;block-progression:tb;writing-mode:lr-tb;baseline-shift:baseline;text-anchor:start;white-space:normal;clip-rule:nonzero;display:inline;overflow:visible;visibility:visible;opacity:1;isolation:auto;mix-blend-mode:normal;color-interpolation:sRGB;color-interpolation-filters:linearRGB;solid-color:#000000;solid-opacity:1;fill:#000000;fill-opacity:1;fill-rule:evenodd;stroke:none;stroke-width:1;stroke-linecap:butt;stroke-linejoin:miter;stroke-miterlimit:4;stroke-dasharray:none;stroke-dashoffset:0;stroke-opacity:1;color-rendering:auto;image-rendering:auto;shape-rendering:auto;text-rendering:auto;enable-background:accumulate"
       transform="translate(-132.4783,250.16077)"
       id="path5830" />
  </g>
</svg>
