<?xml version="1.0" encoding="UTF-8" standalone="no"?>
<svg
   xmlns:dc="http://purl.org/dc/elements/1.1/"
   xmlns:cc="http://creativecommons.org/ns#"
   xmlns:rdf="http://www.w3.org/1999/02/22-rdf-syntax-ns#"
   xmlns:svg="http://www.w3.org/2000/svg"
   xmlns="http://www.w3.org/2000/svg"
   xmlns:sodipodi="http://sodipodi.sourceforge.net/DTD/sodipodi-0.dtd"
   xmlns:inkscape="http://www.inkscape.org/namespaces/inkscape"
   version="1.1"
   width="28.997034"
   height="22.61714"
   viewBox="0 0 28.997034 22.61714"
   id="svg4"
   sodipodi:docname="zero.svg"
   inkscape:version="0.92.2 (5c3e80d, 2017-08-06)">
  <metadata
     id="metadata10">
    <rdf:RDF>
      <cc:Work
         rdf:about="">
        <dc:format>image/svg+xml</dc:format>
        <dc:type
           rdf:resource="http://purl.org/dc/dcmitype/StillImage" />
        <dc:title></dc:title>
      </cc:Work>
    </rdf:RDF>
  </metadata>
  <defs
     id="defs8" />
  <sodipodi:namedview
     pagecolor="#ffffff"
     bordercolor="#666666"
     borderopacity="1"
     objecttolerance="10"
     gridtolerance="10"
     guidetolerance="10"
     inkscape:pageopacity="0"
     inkscape:pageshadow="2"
     inkscape:window-width="1920"
     inkscape:window-height="1017"
     id="namedview6"
     showgrid="false"
     inkscape:zoom="13.906433"
     inkscape:cx="21.127612"
     inkscape:cy="1.4561831"
     inkscape:window-x="1912"
     inkscape:window-y="-8"
     inkscape:window-maximized="1"
     inkscape:current-layer="svg4"
     fit-margin-top="2"
     fit-margin-left="0.5"
     fit-margin-right="0.5"
     fit-margin-bottom="2"
     inkscape:document-units="mm" />
  <g
     aria-label="00"
     transform="scale(0.98448094,1.0157637)"
     style="font-style:normal;font-variant:normal;font-weight:bold;font-stretch:normal;font-size:19.22960663px;line-height:1.25;font-family:Bahnschrift;-inkscape-font-specification:'Bahnschrift Bold';letter-spacing:2.5px;word-spacing:0px;fill:#000000;fill-opacity:1;stroke:none;stroke-width:0.90138781"
     id="text3703-1" />
  <g
     aria-label="|"
     style="font-style:normal;font-variant:normal;font-weight:normal;font-stretch:normal;font-size:16.99388695px;line-height:1.25;font-family:Arial;-inkscape-font-specification:Arial;letter-spacing:0px;word-spacing:0px;fill:#000000;fill-opacity:1;stroke:none;stroke-width:0.79658842"
     id="text3703-1-2" />
  <g
     aria-label="]"
     transform="scale(0.98448094,1.0157637)"
     style="font-style:normal;font-variant:normal;font-weight:bold;font-stretch:normal;font-size:19.22960663px;line-height:1.25;font-family:Bahnschrift;-inkscape-font-specification:'Bahnschrift Bold';letter-spacing:2.90900493px;word-spacing:0px;fill:#000000;fill-opacity:1;stroke:none;stroke-width:0.90138781"
     id="text3703-1-5" />
  <g
     aria-label="["
     transform="scale(0.98448094,1.0157637)"
     style="font-style:normal;font-variant:normal;font-weight:bold;font-stretch:normal;font-size:19.22960663px;line-height:1.25;font-family:Bahnschrift;-inkscape-font-specification:'Bahnschrift Bold';letter-spacing:2.90900493px;word-spacing:0px;fill:#000000;fill-opacity:1;stroke:none;stroke-width:0.90138781"
     id="text3703-1-1">
    <path
       id="path3813"
       style="font-style:normal;font-variant:normal;font-weight:bold;font-stretch:normal;font-size:19.22960663px;font-family:Bahnschrift;-inkscape-font-specification:'Bahnschrift Bold';letter-spacing:2.90900493px;stroke-width:0.90138781"
       d="M 0.50788189,20.29718 V 1.9689615 H 2.3294364 V 20.29718 Z m 0.93894561,0 v -1.72766 h 2.6478267 v 1.72766 z m 0,-16.6005586 V 1.9689615 H 4.0946542 V 3.6966214 Z M 27.124698,20.29718 V 1.9689615 h 1.821555 V 20.29718 Z m -1.765217,0 v -1.72766 h 2.647826 v 1.72766 z m 0,-16.6005586 V 1.9689615 h 2.647826 V 3.6966214 Z M 14.065422,18.983502 V 3.2826409 h 1.32329 V 18.983502 Z m 7.226077,-0.855286 q -1.953006,0 -2.92951,-1.04223 -0.967114,-1.042229 -0.967114,-2.835616 V 8.0157713 q 0,-1.812165 0.985893,-2.8450052 0.985893,-1.0328402 2.910731,-1.0328402 1.934228,0 2.910732,1.0328402 0.985893,1.0234507 0.985893,2.8450052 V 14.25037 q 0,1.812165 -0.985893,2.845006 -0.985893,1.03284 -2.910732,1.03284 z m 0,-1.821555 q 1.05162,0 1.511703,-0.544588 0.469473,-0.553978 0.469473,-1.511703 V 8.0157713 q 0,-0.967114 -0.469473,-1.5117024 -0.460083,-0.5445885 -1.511703,-0.5445885 -1.051619,0 -1.521091,0.5445885 -0.460084,0.5445884 -0.460084,1.5117024 V 14.25037 q 0,0.957725 0.460084,1.511703 0.469472,0.544588 1.521091,0.544588 z M 8.1626352,18.128216 q -1.9530069,0 -2.9295104,-1.04223 -0.967114,-1.042229 -0.967114,-2.835616 V 8.0157713 q 0,-1.812165 0.9858929,-2.8450052 0.9858929,-1.0328402 2.9107315,-1.0328402 1.9342278,0 2.9107318,1.0328402 0.985893,1.0234507 0.985893,2.8450052 V 14.25037 q 0,1.812165 -0.985893,2.845006 -0.985893,1.03284 -2.9107318,1.03284 z m 0,-1.821555 q 1.0516191,0 1.5117025,-0.544588 Q 10.14381,15.208095 10.14381,14.25037 V 8.0157713 q 0,-0.967114 -0.4694723,-1.5117024 -0.4600834,-0.5445885 -1.5117025,-0.5445885 -1.0516191,0 -1.5210919,0.5445885 Q 6.1814599,7.0486573 6.1814599,8.0157713 V 14.25037 q 0,0.957725 0.4600834,1.511703 0.4694728,0.544588 1.5210919,0.544588 z" />
  </g>
</svg>
