<?xml version="1.0" encoding="UTF-8" standalone="no"?><svg xmlns="http://www.w3.org/2000/svg" xmlns:xlink="http://www.w3.org/1999/xlink" contentScriptType="application/ecmascript" contentStyleType="text/css" height="435px" preserveAspectRatio="none" style="width:884px;height:435px;" version="1.1" viewBox="0 0 884 435" width="884px" zoomAndPan="magnify"><defs><filter height="300%" id="f1mqhd7xgysga4" width="300%" x="-1" y="-1"><feGaussianBlur result="blurOut" stdDeviation="2.0"/><feColorMatrix in="blurOut" result="blurOut2" type="matrix" values="0 0 0 0 0 0 0 0 0 0 0 0 0 0 0 0 0 0 .4 0"/><feOffset dx="4.0" dy="4.0" in="blurOut2" result="blurOut3"/><feBlend in="SourceGraphic" in2="blurOut3" mode="normal"/></filter></defs><g><!--cluster drawing_utils--><polygon fill="#FFFFFF" filter="url(#f1mqhd7xgysga4)" points="22,69,132,69,139,91.2969,206,91.2969,206,423,22,423,22,69" style="stroke: #000000; stroke-width: 1.5;"/><line style="stroke: #000000; stroke-width: 1.5;" x1="22" x2="139" y1="91.2969" y2="91.2969"/><text fill="#000000" font-family="sans-serif" font-size="14" font-weight="bold" lengthAdjust="spacingAndGlyphs" textLength="104" x="26" y="83.9951">drawing_utils</text><!--cluster file_manager--><polygon fill="#FFFFFF" filter="url(#f1mqhd7xgysga4)" points="230,75.5,336,75.5,343,97.7969,370,97.7969,370,225.5,230,225.5,230,75.5" style="stroke: #000000; stroke-width: 1.5;"/><line style="stroke: #000000; stroke-width: 1.5;" x1="230" x2="343" y1="97.7969" y2="97.7969"/><text fill="#000000" font-family="sans-serif" font-size="14" font-weight="bold" lengthAdjust="spacingAndGlyphs" textLength="100" x="234" y="90.4951">file_manager</text><!--cluster laser_...--><polygon fill="#FFFFFF" filter="url(#f1mqhd7xgysga4)" points="394,24,461,24,468,46.2969,862,46.2969,862,277,394,277,394,24" style="stroke: #000000; stroke-width: 1.5;"/><line style="stroke: #000000; stroke-width: 1.5;" x1="394" x2="468" y1="46.2969" y2="46.2969"/><text fill="#000000" font-family="sans-serif" font-size="14" font-weight="bold" lengthAdjust="spacingAndGlyphs" textLength="61" x="398" y="38.9951">laser_...</text><!--class Drawing--><rect fill="#FEFECE" filter="url(#f1mqhd7xgysga4)" height="112.0234" id="Drawing" style="stroke: #A80036; stroke-width: 1.5;" width="152" x="38" y="104"/><ellipse cx="84.75" cy="120" fill="#ADD1B2" rx="11" ry="11" style="stroke: #A80036; stroke-width: 1.0;"/><path d="M87.0938,115.6719 L87.2656,115.75 C87.4844,115.4375 87.6875,115.3438 87.9844,115.3438 C88.2813,115.3438 88.5625,115.4844 88.7188,115.75 C88.8125,115.9063 88.8281,116.0313 88.8281,116.4688 L88.8281,117.8906 C88.8281,118.3125 88.7969,118.5 88.6875,118.6563 C88.5156,118.875 88.25,119.0156 87.9844,119.0156 C87.7656,119.0156 87.5313,118.9063 87.3906,118.7656 C87.25,118.6406 87.2188,118.5156 87.1563,118.1094 C87.0625,117.7031 86.8906,117.4844 86.4063,117.2031 C85.9375,116.9531 85.3281,116.7969 84.75,116.7969 C83.0156,116.7969 81.7656,118.1094 81.7656,119.8906 L81.7656,120.9844 C81.7656,122.6875 83.0625,123.7813 85.1094,123.7813 C85.875,123.7813 86.5625,123.6563 86.9844,123.3906 C87.1719,123.2969 87.1719,123.2969 87.625,122.8125 C87.8125,122.625 88.0156,122.5469 88.2344,122.5469 C88.7031,122.5469 89.0938,122.9375 89.0938,123.3906 C89.0938,123.7813 88.7656,124.2344 88.1875,124.6406 C87.4375,125.1875 86.2813,125.4844 85.0625,125.4844 C82.1719,125.4844 80.0625,123.5938 80.0625,121.0156 L80.0625,119.8906 C80.0625,117.1719 82.0625,115.0938 84.6875,115.0938 C85.5625,115.0938 86.1563,115.2344 87.0938,115.6719 Z "/><text fill="#000000" font-family="sans-serif" font-size="12" lengthAdjust="spacingAndGlyphs" textLength="50" x="105.25" y="124.1543">Drawing</text><line style="stroke: #A80036; stroke-width: 1.5;" x1="39" x2="189" y1="136" y2="136"/><text fill="#000000" font-family="sans-serif" font-size="11" lengthAdjust="spacingAndGlyphs" textLength="32" x="44" y="150.2104">name</text><text fill="#000000" font-family="sans-serif" font-size="11" lengthAdjust="spacingAndGlyphs" textLength="50" x="44" y="163.0151">polylines</text><line style="stroke: #A80036; stroke-width: 1.5;" x1="39" x2="189" y1="169.6094" y2="169.6094"/><ellipse cx="49" cy="181.5117" fill="#84BE84" rx="3" ry="3" style="stroke: #038048; stroke-width: 1.0;"/><text fill="#000000" font-family="sans-serif" font-size="11" lengthAdjust="spacingAndGlyphs" textLength="55" x="58" y="183.8198">optimize()</text><rect fill="#F24D5C" height="6" style="stroke: #C82930; stroke-width: 1.0;" width="6" x="46" y="191.3164"/><text fill="#000000" font-family="sans-serif" font-size="11" lengthAdjust="spacingAndGlyphs" textLength="86" x="58" y="196.6245">combineLines()</text><rect fill="#F24D5C" height="6" style="stroke: #C82930; stroke-width: 1.0;" width="6" x="46" y="204.1211"/><text fill="#000000" font-family="sans-serif" font-size="11" lengthAdjust="spacingAndGlyphs" textLength="126" x="58" y="209.4292">reorderInnerToOuter()</text><!--class Polyline--><rect fill="#FEFECE" filter="url(#f1mqhd7xgysga4)" height="86.4141" id="Polyline" style="stroke: #A80036; stroke-width: 1.5;" width="125" x="51.5" y="321"/><ellipse cx="87.2" cy="337" fill="#ADD1B2" rx="11" ry="11" style="stroke: #A80036; stroke-width: 1.0;"/><path d="M89.5438,332.6719 L89.7156,332.75 C89.9344,332.4375 90.1375,332.3438 90.4344,332.3438 C90.7313,332.3438 91.0125,332.4844 91.1688,332.75 C91.2625,332.9063 91.2781,333.0313 91.2781,333.4688 L91.2781,334.8906 C91.2781,335.3125 91.2469,335.5 91.1375,335.6563 C90.9656,335.875 90.7,336.0156 90.4344,336.0156 C90.2156,336.0156 89.9813,335.9063 89.8406,335.7656 C89.7,335.6406 89.6688,335.5156 89.6063,335.1094 C89.5125,334.7031 89.3406,334.4844 88.8563,334.2031 C88.3875,333.9531 87.7781,333.7969 87.2,333.7969 C85.4656,333.7969 84.2156,335.1094 84.2156,336.8906 L84.2156,337.9844 C84.2156,339.6875 85.5125,340.7813 87.5594,340.7813 C88.325,340.7813 89.0125,340.6563 89.4344,340.3906 C89.6219,340.2969 89.6219,340.2969 90.075,339.8125 C90.2625,339.625 90.4656,339.5469 90.6844,339.5469 C91.1531,339.5469 91.5438,339.9375 91.5438,340.3906 C91.5438,340.7813 91.2156,341.2344 90.6375,341.6406 C89.8875,342.1875 88.7313,342.4844 87.5125,342.4844 C84.6219,342.4844 82.5125,340.5938 82.5125,338.0156 L82.5125,336.8906 C82.5125,334.1719 84.5125,332.0938 87.1375,332.0938 C88.0125,332.0938 88.6063,332.2344 89.5438,332.6719 Z "/><text fill="#000000" font-family="sans-serif" font-size="12" lengthAdjust="spacingAndGlyphs" textLength="47" x="105.8" y="341.1543">Polyline</text><line style="stroke: #A80036; stroke-width: 1.5;" x1="52.5" x2="175.5" y1="353" y2="353"/><text fill="#000000" font-family="sans-serif" font-size="11" lengthAdjust="spacingAndGlyphs" textLength="28" x="57.5" y="367.2104">color</text><text fill="#000000" font-family="sans-serif" font-size="11" lengthAdjust="spacingAndGlyphs" textLength="35" x="57.5" y="380.0151">points</text><line style="stroke: #A80036; stroke-width: 1.5;" x1="52.5" x2="175.5" y1="386.6094" y2="386.6094"/><ellipse cx="62.5" cy="398.5117" fill="#84BE84" rx="3" ry="3" style="stroke: #038048; stroke-width: 1.0;"/><text fill="#000000" font-family="sans-serif" font-size="11" lengthAdjust="spacingAndGlyphs" textLength="99" x="71.5" y="400.8198">contains(polyline)</text><!--class FileManager--><rect fill="#FEFECE" filter="url(#f1mqhd7xgysga4)" height="99.2188" id="FileManager" style="stroke: #A80036; stroke-width: 1.5;" width="108" x="246" y="110.5"/><ellipse cx="261" cy="126.5" fill="#ADD1B2" rx="11" ry="11" style="stroke: #A80036; stroke-width: 1.0;"/><path d="M263.3438,122.1719 L263.5156,122.25 C263.7344,121.9375 263.9375,121.8438 264.2344,121.8438 C264.5313,121.8438 264.8125,121.9844 264.9688,122.25 C265.0625,122.4063 265.0781,122.5313 265.0781,122.9688 L265.0781,124.3906 C265.0781,124.8125 265.0469,125 264.9375,125.1563 C264.7656,125.375 264.5,125.5156 264.2344,125.5156 C264.0156,125.5156 263.7813,125.4063 263.6406,125.2656 C263.5,125.1406 263.4688,125.0156 263.4063,124.6094 C263.3125,124.2031 263.1406,123.9844 262.6563,123.7031 C262.1875,123.4531 261.5781,123.2969 261,123.2969 C259.2656,123.2969 258.0156,124.6094 258.0156,126.3906 L258.0156,127.4844 C258.0156,129.1875 259.3125,130.2813 261.3594,130.2813 C262.125,130.2813 262.8125,130.1563 263.2344,129.8906 C263.4219,129.7969 263.4219,129.7969 263.875,129.3125 C264.0625,129.125 264.2656,129.0469 264.4844,129.0469 C264.9531,129.0469 265.3438,129.4375 265.3438,129.8906 C265.3438,130.2813 265.0156,130.7344 264.4375,131.1406 C263.6875,131.6875 262.5313,131.9844 261.3125,131.9844 C258.4219,131.9844 256.3125,130.0938 256.3125,127.5156 L256.3125,126.3906 C256.3125,123.6719 258.3125,121.5938 260.9375,121.5938 C261.8125,121.5938 262.4063,121.7344 263.3438,122.1719 Z "/><text fill="#000000" font-family="sans-serif" font-size="12" lengthAdjust="spacingAndGlyphs" textLength="76" x="275" y="130.6543">FileManager</text><line style="stroke: #A80036; stroke-width: 1.5;" x1="247" x2="353" y1="142.5" y2="142.5"/><text fill="#000000" font-family="sans-serif" font-size="11" lengthAdjust="spacingAndGlyphs" textLength="48" x="252" y="156.7104">rootPath</text><text fill="#000000" font-family="sans-serif" font-size="11" lengthAdjust="spacingAndGlyphs" textLength="73" x="252" y="169.5151">webRootPath</text><line style="stroke: #A80036; stroke-width: 1.5;" x1="247" x2="353" y1="176.1094" y2="176.1094"/><ellipse cx="257" cy="188.0117" fill="#84BE84" rx="3" ry="3" style="stroke: #038048; stroke-width: 1.0;"/><text fill="#000000" font-family="sans-serif" font-size="11" lengthAdjust="spacingAndGlyphs" textLength="61" x="266" y="190.3198">open(path)</text><rect fill="#F24D5C" height="6" style="stroke: #C82930; stroke-width: 1.0;" width="6" x="254" y="197.8164"/><text fill="#000000" font-family="sans-serif" font-size="11" lengthAdjust="spacingAndGlyphs" textLength="82" x="266" y="203.1245">openDXF(path)</text><!--class Laser--><rect fill="#FEFECE" filter="url(#f1mqhd7xgysga4)" height="201.6563" id="Laser" style="stroke: #A80036; stroke-width: 1.5;" width="435" x="410.5" y="59"/><ellipse cx="606.75" cy="75" fill="#B4A7E5" rx="11" ry="11" style="stroke: #A80036; stroke-width: 1.0;"/><path d="M607.7031,71.7813 L607.7031,78.2969 L609.4219,78.2969 C609.875,78.2969 610.0156,78.3281 610.1875,78.4531 C610.4219,78.625 610.5313,78.875 610.5313,79.1563 C610.5313,79.7188 610.1719,80 609.4219,80 L604.2813,80 C603.875,80 603.6719,79.9531 603.5156,79.8281 C603.2969,79.6719 603.1563,79.4063 603.1563,79.1563 C603.1563,78.8594 603.3125,78.5781 603.5625,78.4219 C603.7188,78.3125 603.8438,78.2969 604.2813,78.2969 L606,78.2969 L606,71.7813 L604.2813,71.7813 C603.8594,71.7813 603.6719,71.75 603.5156,71.6406 C603.2969,71.4688 603.1563,71.2188 603.1563,70.9375 C603.1563,70.6563 603.3125,70.3594 603.5625,70.2031 C603.7188,70.1094 603.8438,70.0938 604.2813,70.0938 L609.4219,70.0938 C609.875,70.0938 610.0156,70.125 610.1875,70.2344 C610.4219,70.4063 610.5313,70.6719 610.5313,70.9375 C610.5313,71.2344 610.3906,71.5156 610.125,71.6719 C610,71.75 609.8125,71.7813 609.4219,71.7813 Z "/><text fill="#000000" font-family="sans-serif" font-size="12" font-style="italic" lengthAdjust="spacingAndGlyphs" textLength="34" x="627.25" y="79.1543">Laser</text><line style="stroke: #A80036; stroke-width: 1.5;" x1="411.5" x2="844.5" y1="91" y2="91"/><line style="stroke: #A80036; stroke-width: 1.5;" x1="411.5" x2="844.5" y1="99" y2="99"/><ellipse cx="421.5" cy="110.9023" fill="#84BE84" rx="3" ry="3" style="stroke: #038048; stroke-width: 1.0;"/><text fill="#000000" font-family="sans-serif" font-size="11" lengthAdjust="spacingAndGlyphs" textLength="187" x="430.5" y="113.2104">init(endstopX = 0, endstopY = 0)</text><ellipse cx="421.5" cy="123.707" fill="#84BE84" rx="3" ry="3" style="stroke: #038048; stroke-width: 1.0;"/><text fill="#000000" font-family="sans-serif" font-size="11" lengthAdjust="spacingAndGlyphs" textLength="51" x="430.5" y="126.0151">release()</text><ellipse cx="421.5" cy="136.5117" fill="#84BE84" rx="3" ry="3" style="stroke: #038048; stroke-width: 1.0;"/><text fill="#000000" font-family="sans-serif" font-size="11" lengthAdjust="spacingAndGlyphs" textLength="35" x="430.5" y="138.8198">isInit()</text><ellipse cx="421.5" cy="149.3164" fill="#84BE84" rx="3" ry="3" style="stroke: #038048; stroke-width: 1.0;"/><text fill="#000000" font-family="sans-serif" font-size="11" lengthAdjust="spacingAndGlyphs" textLength="46" x="430.5" y="151.6245">enable()</text><ellipse cx="421.5" cy="162.1211" fill="#84BE84" rx="3" ry="3" style="stroke: #038048; stroke-width: 1.0;"/><text fill="#000000" font-family="sans-serif" font-size="11" lengthAdjust="spacingAndGlyphs" textLength="44" x="430.5" y="164.4292">unlock()</text><ellipse cx="421.5" cy="174.9258" fill="#84BE84" rx="3" ry="3" style="stroke: #038048; stroke-width: 1.0;"/><text fill="#000000" font-family="sans-serif" font-size="11" lengthAdjust="spacingAndGlyphs" textLength="51" x="430.5" y="177.2339">isActive()</text><ellipse cx="421.5" cy="187.7305" fill="#84BE84" rx="3" ry="3" style="stroke: #038048; stroke-width: 1.0;"/><text fill="#000000" font-family="sans-serif" font-size="11" lengthAdjust="spacingAndGlyphs" textLength="40" x="430.5" y="190.0386">home()</text><ellipse cx="421.5" cy="200.5352" fill="#84BE84" rx="3" ry="3" style="stroke: #038048; stroke-width: 1.0;"/><text fill="#000000" font-family="sans-serif" font-size="11" lengthAdjust="spacingAndGlyphs" textLength="73" x="430.5" y="202.8433">move(dx, dy)</text><ellipse cx="421.5" cy="213.3398" fill="#84BE84" rx="3" ry="3" style="stroke: #038048; stroke-width: 1.0;"/><text fill="#000000" font-family="sans-serif" font-size="11" lengthAdjust="spacingAndGlyphs" textLength="73" x="430.5" y="215.6479">moveTo(x, y)</text><ellipse cx="421.5" cy="226.1445" fill="#84BE84" rx="3" ry="3" style="stroke: #038048; stroke-width: 1.0;"/><text fill="#000000" font-family="sans-serif" font-size="11" lengthAdjust="spacingAndGlyphs" textLength="33" x="430.5" y="228.4526">stop()</text><ellipse cx="421.5" cy="238.9492" fill="#84BE84" rx="3" ry="3" style="stroke: #038048; stroke-width: 1.0;"/><text fill="#000000" font-family="sans-serif" font-size="11" lengthAdjust="spacingAndGlyphs" textLength="409" x="430.5" y="241.2573">processVector(polylines, feedRate, originX = 0, originY = 0, repeat = 1)</text><ellipse cx="421.5" cy="251.7539" fill="#84BE84" rx="3" ry="3" style="stroke: #038048; stroke-width: 1.0;"/><text fill="#000000" font-family="sans-serif" font-size="11" lengthAdjust="spacingAndGlyphs" textLength="395" x="430.5" y="254.062">processRaster(raster, feedRate, originX = 0, originY = 0, repeat = 1)</text><!--link Drawing to Polyline--><path d="M114,229.307 C114,259.578 114,294.241 114,320.685 " fill="none" id="Drawing-Polyline" style="stroke: #A80036; stroke-width: 1.0;"/><polygon fill="#A80036" points="114,216.197,110,222.197,114,228.197,118,222.197,114,216.197" style="stroke: #A80036; stroke-width: 1.0;"/><text fill="#000000" font-family="sans-serif" font-size="13" lengthAdjust="spacingAndGlyphs" textLength="36" x="75.2438" y="309.9493">many</text><!--
@startuml
package drawing_utils {
	class Drawing {
		name
		polylines
		+optimize()
		-combineLines()
		-reorderInnerToOuter()
	}

	class Polyline {
		color
		points
		+contains(polyline)
	}

	Drawing *- - "many" Polyline
}


package file_manager {
	class FileManager {
		rootPath
		webRootPath
		+open(path)
		-openDXF(path)
	}
}


package laser_... {
	interface Laser {
		+init(endstopX = 0, endstopY = 0)
		+release()
		+isInit()
		+enable()
		+unlock()
		+isActive()
		+home()
		+move(dx, dy)
		+moveTo(x, y)
		+stop()
		+processVector(polylines, feedRate, originX = 0, originY = 0, repeat = 1)
		+processRaster(raster, feedRate, originX = 0, originY = 0, repeat = 1)
	}
}
@enduml

PlantUML version 1.2018.11(Sat Sep 22 16:43:53 UTC 2018)
(GPL source distribution)
Java Runtime: Java(TM) SE Runtime Environment
JVM: Java HotSpot(TM) 64-Bit Server VM
Java Version: 1.7.0_25-b15
Operating System: Linux
Default Encoding: UTF-8
Language: en
Country: US
--></g></svg>